<?xml version="1.0" standalone="no"?><!DOCTYPE svg PUBLIC "-//W3C//DTD SVG 1.1//EN" "http://www.w3.org/Graphics/SVG/1.1/DTD/svg11.dtd"><svg t="1636019471677" class="icon" viewBox="0 0 1024 1024" version="1.1" xmlns="http://www.w3.org/2000/svg" p-id="14689" xmlns:xlink="http://www.w3.org/1999/xlink" width="200" height="200"><defs><style type="text/css"></style></defs><path d="M309.3 248.41c-194.48 0-232.04-114.53-233.61-119.64-3.48-11.33 2.87-23.35 14.22-26.83 11.39-3.49 23.24 2.82 26.78 14.02 1.51 4.53 35.82 98.75 218.79 88.78 11.37-0.66 21.96 8.43 22.61 20.29 0.63 11.84-8.45 21.96-20.3 22.6-9.84 0.53-19.36 0.78-28.49 0.78z" fill="#8a8a8a" opacity=".6" p-id="14690"></path><path d="M928.14 847.16H845.9l-54.05-376.62h21.58c11.87 0 21.47-9.61 21.47-21.47V312.25c0-11.86-9.6-21.47-21.47-21.47h-61.97c-1.58-94.2-108.32-136.82-113.01-138.63-11.11-4.3-23.45 1.22-27.72 12.25-4.3 11.04 1.17 23.48 12.2 27.8 0.86 0.34 83.62 33.7 85.61 98.58H669.7c-87.44-147.53-254.11-96.64-255.76-96.1-11.3 3.6-17.53 15.68-13.95 26.97 3.61 11.31 15.6 17.54 26.99 13.95 5.16-1.61 118.46-36.13 190.71 55.18H491.24c-11.87 0-21.47 9.61-21.47 21.47v136.81c0 11.86 9.6 21.47 21.47 21.47h21.58l-49.29 343.31-27.65-192.32h5.31c11.87 0 21.47-9.61 21.47-21.47v-88.81c0-11.86-9.6-21.47-21.47-21.47H232.05c-11.87 0-21.47 9.61-21.47 21.47v88.81c0 11.86 9.6 21.47 21.47 21.47h5.33l-32.42 225.63H96.22c-17.78 0-32.21 14.42-32.21 32.21s14.43 32.21 32.21 32.21h831.92c17.78 0 32.21-14.42 32.21-32.21 0-17.78-14.42-32.2-32.21-32.2z m-679.79 0l35.07-244.05c0.88-6.17-0.96-12.4-5.03-17.11a21.48 21.48 0 0 0-16.23-7.41h-8.64v-45.86h166.19v45.86h-8.62c-6.23 0-12.14 2.71-16.23 7.41a21.521 21.521 0 0 0-5.03 17.11l35.09 244.05H248.35z m253.79 0l56.71-395.04a21.5 21.5 0 0 0-5.03-17.11 21.48 21.48 0 0 0-16.23-7.41h-24.87v-93.86h279.24v93.86h-24.87c-6.23 0-12.14 2.71-16.23 7.41a21.51 21.51 0 0 0-5.03 17.11l56.69 395.04H502.14z" fill="#8a8a8a" p-id="14691"></path></svg>