<?xml version="1.0" standalone="no"?><!DOCTYPE svg PUBLIC "-//W3C//DTD SVG 1.1//EN" "http://www.w3.org/Graphics/SVG/1.1/DTD/svg11.dtd"><svg t="1636012051591" class="icon" viewBox="0 0 1024 1024" version="1.1" xmlns="http://www.w3.org/2000/svg" p-id="12169" xmlns:xlink="http://www.w3.org/1999/xlink" width="200" height="200"><defs><style type="text/css"></style></defs><path d="M735.138909 651.636364l48.733091-70.144c9.169455-13.218909 9.914182-35.234909 1.582545-49.058909L605.090909 232.727273 735.138909 651.636364z" p-id="12170"></path><path d="M488.727273 1024c27.182545 0 256-128.605091 256-158.859636 0-30.254545-178.082909-643.304727-178.082909-643.304727l137.914182-181.527273c0 0 32.162909-40.308364-32.162909-40.308364L307.805091 0C243.432727 0 264.890182 40.308364 264.890182 40.308364l145.92 181.527273C410.810182 221.835636 232.727273 831.301818 232.727273 865.140364 232.727273 898.978909 461.544727 1024 488.727273 1024zM468.619636 209.175273 339.176727 46.545455l295.098182 0L508.834909 209.175273c0 0 166.074182 628.456727 166.074182 638.603636 0 10.146909-186.181818 107.008-186.181818 107.008s-186.181818-93.230545-186.181818-107.008C302.545455 834.048 468.619636 209.175273 468.619636 209.175273z" p-id="12171"></path></svg>