<?xml version="1.0" standalone="no"?><!DOCTYPE svg PUBLIC "-//W3C//DTD SVG 1.1//EN" "http://www.w3.org/Graphics/SVG/1.1/DTD/svg11.dtd"><svg t="1636002883658" class="icon" viewBox="0 0 1024 1024" version="1.1" xmlns="http://www.w3.org/2000/svg" p-id="3588" xmlns:xlink="http://www.w3.org/1999/xlink" width="200" height="200"><defs><style type="text/css"></style></defs><path d="M746.666667 640v-64a21.333333 21.333333 0 0 0-21.333334-21.333333H320a21.333333 21.333333 0 0 0-21.333333 21.333333v64h21.333333a42.666667 42.666667 0 0 1 42.666667 42.666667v106.666666a42.666667 42.666667 0 0 1-42.666667 42.666667h-106.666667a42.666667 42.666667 0 0 1-42.666666-42.666667v-106.666666a42.666667 42.666667 0 0 1 42.666666-42.666667h21.333334v-106.666667a42.666667 42.666667 0 0 1 42.666666-42.666666h490.666667a42.666667 42.666667 0 0 1 42.666667 42.666666v106.666667h21.333333a42.666667 42.666667 0 0 1 42.666667 42.666667v106.666666a42.666667 42.666667 0 0 1-42.666667 42.666667h-106.666667a42.666667 42.666667 0 0 1-42.666666-42.666667v-106.666666a42.666667 42.666667 0 0 1 42.666666-42.666667h21.333334zM448 192h149.333333a42.666667 42.666667 0 0 1 42.666667 42.666667v149.333333a42.666667 42.666667 0 0 1-42.666667 42.666667h-149.333333a42.666667 42.666667 0 0 1-42.666667-42.666667v-149.333333a42.666667 42.666667 0 0 1 42.666667-42.666667z m42.666667 64a21.333333 21.333333 0 0 0-21.333334 21.333333v64a21.333333 21.333333 0 0 0 21.333334 21.333334h64a21.333333 21.333333 0 0 0 21.333333-21.333334v-64a21.333333 21.333333 0 0 0-21.333333-21.333333h-64z m-21.333334 384h106.666667a42.666667 42.666667 0 0 1 42.666667 42.666667v106.666666a42.666667 42.666667 0 0 1-42.666667 42.666667h-106.666667a42.666667 42.666667 0 0 1-42.666666-42.666667v-106.666666a42.666667 42.666667 0 0 1 42.666666-42.666667z" fill="#2A2A37" p-id="3589"></path><path d="M490.666667 384h64v277.333333h-64z" fill="#2A2A37" p-id="3590"></path></svg>