<?xml version="1.0" encoding="UTF-8"?>
<svg width="16px" height="16px" viewBox="0 0 16 16" version="1.1" xmlns="http://www.w3.org/2000/svg" xmlns:xlink="http://www.w3.org/1999/xlink">
    <!-- Generator: Sketch 63 (92445) - https://sketch.com -->
    <title>C3F62AAB-C2AF-453D-B672-9EB6411B685F</title>
    <desc>Created with Sketch.</desc>
    <g id="控件" stroke="none" stroke-width="1" fill="none" fill-rule="evenodd">
        <g id="icon/basic-data">
            <rect id="矩形备份-22" fill-opacity="0" fill="#FFFFFF" x="0" y="0" width="16" height="16"></rect>
            <g id="编组备份" fill="#9EA8BA" fill-rule="nonzero">
                <path d="M11.100958,1.81001904 L8.47873575,0.29781728 C8.16955377,0.119516016 7.78877957,0.119516016 7.47959759,0.29781728 L4.85737536,1.81001904 C4.54773147,1.98858668 4.35694444,2.31884976 4.35694444,2.6762931 L4.35694444,5.70030007 C4.35694444,6.05688937 4.54682848,6.38649834 4.85530578,6.56537732 L7.47752801,8.08594446 C7.78776087,8.26584146 8.17057246,8.26584146 8.48080533,8.08594446 L11.1030276,6.56537732 C11.4115048,6.38649834 11.6013889,6.05688937 11.6013889,5.70030007 L11.6013889,2.6762931 C11.6013889,2.31884976 11.4106019,1.98858668 11.100958,1.81001904 Z M0.00138889583,10.0080333 L0.00138889583,13.0320402 C0.00138889583,13.3894836 0.192175924,13.7197466 0.501819813,13.8983143 L3.12404202,15.4105161 C3.433224,15.5888173 3.8139982,15.5888173 4.12318019,15.4105161 L6.74540241,13.8983143 C7.0550463,13.7197466 7.24583333,13.3894836 7.24583333,13.0320402 L7.24583333,10.0080333 C7.24583333,9.65144396 7.05594929,9.32183499 6.74747199,9.14295601 L4.12524977,7.62238887 C3.8150169,7.44249188 3.43220531,7.44249188 3.12197244,7.62238887 L0.499750234,9.14295601 C0.191272941,9.32183499 0.00138889583,9.65144396 0.00138889583,10.0080333 Z M11.8330836,7.62238887 L9.21086134,9.14295601 C8.90238405,9.32183499 8.7125,9.65144396 8.7125,10.0080333 L8.7125,13.0320402 C8.7125,13.3894836 8.90328703,13.7197466 9.21293092,13.8983143 L11.8351531,15.4105161 C12.1443351,15.5888173 12.5251093,15.5888173 12.8342913,15.4105161 L15.4565135,13.8983143 C15.7661574,13.7197466 15.9569444,13.3894836 15.9569444,13.0320402 L15.9569444,10.0080333 C15.9569444,9.65144396 15.7670604,9.32183499 15.4585831,9.14295601 L12.8363609,7.62238887 C12.526128,7.44249188 12.1433164,7.44249188 11.8330836,7.62238887 Z" id="形状"></path>
            </g>
        </g>
    </g>
</svg>