<?xml version="1.0" encoding="UTF-8"?>
<svg width="16px" height="16px" viewBox="0 0 16 16" version="1.1" xmlns="http://www.w3.org/2000/svg" xmlns:xlink="http://www.w3.org/1999/xlink">
    <!-- Generator: Sketch 63 (92445) - https://sketch.com -->
    <title>BEF2E0DE-F628-459B-9F26-5AA28E350A57</title>
    <desc>Created with Sketch.</desc>
    <g id="控件" stroke="none" stroke-width="1" fill="none" fill-rule="evenodd">
        <g id="icon/Dispatch">
            <rect id="矩形备份-26" fill-opacity="0" fill="#FFFFFF" x="0" y="0" width="16" height="16"></rect>
            <g id="编组备份" fill="#9EA8BA" fill-rule="nonzero">
                <path d="M14.4702459,5.93698452 C14.4702459,1.99120756 9.10807403,0.227639141 9.10807403,0.227639141 C8.39988452,-0.0758797187 7.59040034,-0.0758797187 6.88221083,0.227639141 C6.88221083,0.227639141 1.51994372,1.78884048 1.51994372,5.93698452 C1.51994372,6.54403811 0.377715891,6.4633167 0.00227004688,8.04774231 L15.8867837,8.04774231 C15.394899,6.52681438 14.4702459,6.54405398 14.4702459,5.93698452 Z M2.45510566,8.81273048 C2.61791369,11.6390435 3.57961764,13.0195464 4.95988237,14.3998428 C6.91286433,16.134869 8.97228427,16.1867943 11.1315225,14.3998428 C12.5076599,12.931999 13.5509425,11.5472735 13.7335618,8.81273048 L2.45510566,8.81273048 Z" id="形状"></path>
            </g>
        </g>
    </g>
</svg>