<?xml version="1.0" encoding="UTF-8"?>
<svg width="16px" height="16px" viewBox="0 0 16 16" version="1.1" xmlns="http://www.w3.org/2000/svg" xmlns:xlink="http://www.w3.org/1999/xlink">
    <!-- Generator: Sketch 63 (92445) - https://sketch.com -->
    <title>174F7EDC-F63B-40FC-9BFC-5CBADC98A3D9</title>
    <desc>Created with Sketch.</desc>
    <g id="控件" stroke="none" stroke-width="1" fill="none" fill-rule="evenodd">
        <g id="icon/-equipment">
            <rect id="矩形备份-30" fill-opacity="0" fill="#FFFFFF" x="0" y="0" width="16" height="16"></rect>
            <g id="编组备份" fill="#9BACC0" fill-rule="nonzero">
                <path d="M14.257125,15.624 C12.433125,16.536 10.265125,15.28 10.033125,13.344 C10.033125,13 10.033125,12.544 10.145125,12.2 C10.257125,11.968 10.145125,11.968 10.033125,11.856 C8.097125,9.8 6.153125,7.864 4.217125,5.928 C4.105125,5.816 3.985125,5.816 3.761125,5.816 C2.161125,6.272 0.337125,5.248 0.001125,3.536 C0.001125,2.968 0.001125,2.392 0.233125,1.712 C0.345125,1.712 0.345125,1.824 0.465125,1.824 L2.177125,3.536 C2.633125,3.992 3.201125,3.992 3.657125,3.648 C4.113125,3.192 4.001125,2.624 3.545125,2.168 C2.969125,1.6 2.401125,0.912 1.713125,0.344 C2.625125,1.5959456e-16 3.537125,-0.112 4.337125,0.344 C5.593125,1.024 6.161125,2.392 5.817125,3.76 C5.705125,3.992 5.817125,4.104 5.929125,4.216 L11.633125,9.92 C11.745125,10.032 11.865125,10.032 12.089125,10.032 C13.233125,9.8 14.257125,10.032 15.057125,10.944 C15.857125,11.744 16.081125,12.768 15.625125,13.912 C15.513125,14.144 15.513125,14.256 15.281125,14.024 L13.577125,12.32 C13.233125,11.976 12.889125,11.864 12.433125,12.088 C12.089125,12.2 11.865125,12.544 11.745125,12.888 C11.745125,13.232 11.857125,13.576 12.089125,13.8 C13.009125,14.368 13.577125,14.944 14.257125,15.624 Z" id="路径"></path>
                <path d="M0.001125,14.368 C0.001125,14.024 0.113125,13.68 0.457125,13.344 L5.249125,8.552 C5.361125,8.44 5.481125,8.44 5.593125,8.552 L7.417125,10.376 C7.529125,10.488 7.529125,10.608 7.417125,10.72 L2.625125,15.512 C1.825125,16.312 0.689125,16.08 0.233125,15.168 C0.001125,14.944 0.001125,14.824 0.001125,14.368 Z M10.153125,6.84 L10.041125,6.728 C9.697125,6.496 9.473125,6.272 9.241125,6.04 C9.009125,5.928 9.129125,5.808 9.241125,5.696 L10.953125,3.984 C11.409125,3.528 11.865125,3.072 12.097125,2.504 C12.433125,1.6 13.121125,0.912 14.033125,0.568 C14.377125,0.336 14.601125,0 14.945125,0 C15.289125,0 15.401125,0.456 15.633125,0.568 C15.977125,0.912 15.977125,1.136 15.745125,1.48 C15.401125,1.936 15.177125,2.504 14.945125,2.96 C14.833125,3.192 14.713125,3.304 14.601125,3.304 C13.233125,3.872 12.089125,4.672 11.177125,5.816 C10.945125,6.16 10.609125,6.384 10.265125,6.728 L10.153125,6.84 L10.153125,6.84 Z" id="形状"></path>
            </g>
        </g>
    </g>
</svg>