<?xml version="1.0" encoding="UTF-8"?>
<svg width="16px" height="16px" viewBox="0 0 16 16" version="1.1" xmlns="http://www.w3.org/2000/svg" xmlns:xlink="http://www.w3.org/1999/xlink">
    <!-- Generator: Sketch 63 (92445) - https://sketch.com -->
    <title>B078741F-74E3-4692-8DFB-A353EF0FF20E</title>
    <desc>Created with Sketch.</desc>
    <g id="控件" stroke="none" stroke-width="1" fill="none" fill-rule="evenodd">
        <g id="icon/file">
            <rect id="矩形备份-23" fill-opacity="0" fill="#FFFFFF" x="0" y="0" width="16" height="16"></rect>
            <g id="编组备份" transform="translate(1.000000, 1.000000)" fill="#9EA8BA" fill-rule="nonzero">
                <path d="M1,9 L5.39999999,9 C5.95228474,9 6.39999999,8.55228475 6.39999999,8 L6.39999999,1 C6.39999999,0.44771525 5.95228474,-1.01453063e-16 5.39999999,0 L1,0 C0.44771525,1.01453063e-16 -6.76353751e-17,0.44771525 0,1 L0,8 C6.76353751e-17,8.55228475 0.44771525,9 1,9 Z M1,14.4 L5.39999999,14.4 C5.95228474,14.4 6.39999999,13.9522847 6.39999999,13.4 L6.39999999,11.4 C6.39999999,10.8477153 5.95228474,10.4 5.39999999,10.4 L1,10.4 C0.44771525,10.4 -6.76353751e-17,10.8477153 0,11.4 L0,13.4 C6.76353751e-17,13.9522847 0.44771525,14.4 1,14.4 Z M9.00000001,14.4 L13.4,14.4 C13.9522847,14.4 14.4,13.9522847 14.4,13.4 L14.4,7.4 C14.4,6.84771525 13.9522847,6.4 13.4,6.4 L9.00000001,6.4 C8.44771526,6.4 8.00000001,6.84771525 8.00000001,7.4 L8.00000001,13.4 C8.00000001,13.9522847 8.44771526,14.4 9.00000001,14.4 Z M8.00000001,1 L8.00000001,3.8 C8.00000001,4.35228475 8.44771526,4.8 9.00000001,4.8 L13.4,4.8 C13.9522847,4.8 14.4,4.35228475 14.4,3.8 L14.4,1 C14.4,0.44771525 13.9522847,6.11118939e-16 13.4,0 L9.00000001,0 C8.44771526,1.01453063e-16 8.00000001,0.44771525 8.00000001,1 Z" id="形状"></path>
            </g>
        </g>
    </g>
</svg>