<?xml version="1.0" encoding="UTF-8"?>
<svg width="16px" height="16px" viewBox="0 0 16 16" version="1.1" xmlns="http://www.w3.org/2000/svg" xmlns:xlink="http://www.w3.org/1999/xlink">
    <!-- Generator: Sketch 63 (92445) - https://sketch.com -->
    <title>3BCB6F89-F9B9-407E-A3FD-7149FBE9872C</title>
    <desc>Created with Sketch.</desc>
    <g id="控件" stroke="none" stroke-width="1" fill="none" fill-rule="evenodd">
        <g id="icon/homepage">
            <rect id="矩形" fill-opacity="0" fill="#FFFFFF" x="0" y="0" width="16" height="16"></rect>
            <g id="编组备份" fill="#9EA8BA" fill-rule="nonzero">
                <path d="M0.288330562,6.57009967 C0.117732484,6.71720862 0.0173216587,6.92961614 0.0119186094,7.15481728 C0.0119186094,7.35782685 0.0925638448,7.55252167 0.236113284,7.69607111 C0.379662724,7.83962055 0.574357545,7.92026578 0.777367109,7.92026578 L2.31889534,7.92026578 L2.31889534,15.2239203 C2.31889534,15.4269298 2.39954058,15.6216247 2.54309002,15.7651741 C2.68663947,15.9087235 2.88133429,15.9893688 3.08434386,15.9893688 L5.63583888,15.9893688 C6.05032144,15.9836509 6.38493832,15.6490341 6.39065614,15.2345515 L6.39065614,12.151495 L9.47371262,12.151495 L9.47371262,15.2239203 C9.47371262,15.6466658 9.81641559,15.9893688 10.2391611,15.9893688 L12.7693937,15.9893688 C13.1921392,15.9893688 13.5348422,15.6466658 13.5348422,15.2239203 L13.5348422,7.93089702 L15.0763704,7.93089702 C15.27938,7.93089702 15.4740748,7.85025178 15.6176243,7.70670234 C15.7611737,7.56315289 15.8418189,7.36845807 15.8418189,7.1654485 C15.8369242,6.93535392 15.7273218,6.72006341 15.5441445,6.58073089 C12.9394934,4.34817275 7.94281561,0 7.94281561,0 C7.94281561,0 2.94613787,4.34817275 0.288330562,6.57009967 Z" id="路径"></path>
            </g>
        </g>
    </g>
</svg>