<?xml version="1.0" encoding="UTF-8"?>
<svg width="16px" height="16px" viewBox="0 0 16 16" version="1.1" xmlns="http://www.w3.org/2000/svg" xmlns:xlink="http://www.w3.org/1999/xlink">
    <!-- Generator: Sketch 63 (92445) - https://sketch.com -->
    <title>EA10B501-28D5-47F6-AF7C-82EFEA971B64</title>
    <desc>Created with Sketch.</desc>
    <g id="控件" stroke="none" stroke-width="1" fill="none" fill-rule="evenodd">
        <g id="icon/organization">
            <rect id="矩形" fill-opacity="0" fill="#FFFFFF" x="0" y="0" width="16" height="16"></rect>
            <g id="编组备份" fill="#9EA8BA" fill-rule="nonzero">
                <path d="M12.5,10 L12.5,8.5 L3.5,8.5 L3.5,10 L5,10 C5.55228475,10 6,10.4477153 6,11 L6,15 C6,15.5522847 5.55228475,16 5,16 L1,16 C0.44771525,16 6.76353751e-17,15.5522847 0,15 L0,11 C-6.76353751e-17,10.4477153 0.44771525,10 1,10 L2.5,10 L2.5,10 L2.5,8.5 C2.5,7.94771525 2.94771525,7.5 3.5,7.5 L7.5,7.5 L7.5,7.5 L7.5,6 L6,6 C5.44771525,6 5,5.55228475 5,5 L5,1 C5,0.44771525 5.44771525,1.01453063e-16 6,0 L10,0 C10.5522847,-1.01453063e-16 11,0.44771525 11,1 L11,5 C11,5.55228475 10.5522847,6 10,6 L8.5,6 L8.5,6 L8.5,7.5 L12.5,7.5 C13.0522847,7.5 13.5,7.94771525 13.5,8.5 L13.5,10 L13.5,10 L15,10 C15.5522847,10 16,10.4477153 16,11 L16,15 C16,15.5522847 15.5522847,16 15,16 L11,16 C10.4477153,16 10,15.5522847 10,15 L10,11 C10,10.4477153 10.4477153,10 11,10 L12.5,10 L12.5,10 Z" id="路径"></path>
            </g>
        </g>
    </g>
</svg>