<?xml version="1.0" encoding="UTF-8"?>
<svg width="16px" height="16px" viewBox="0 0 16 16" version="1.1" xmlns="http://www.w3.org/2000/svg" xmlns:xlink="http://www.w3.org/1999/xlink">
    <!-- Generator: Sketch 63 (92445) - https://sketch.com -->
    <title>18342398-0625-4227-9F21-848DC161BC2A</title>
    <desc>Created with Sketch.</desc>
    <g id="控件" stroke="none" stroke-width="1" fill="none" fill-rule="evenodd">
        <g id="icon/plan">
            <rect id="矩形备份-25" fill-opacity="0" fill="#FFFFFF" x="0" y="0" width="16" height="16"></rect>
            <g id="编组备份" fill="#9EA8BA" fill-rule="nonzero">
                <path d="M14.5,3.3 C14.2,2.9 13.5,2.8 13.1,3.1 C12.7,3.4 12.6,4.1 12.9,4.5 C13.6,5.5 14,6.7 14,8 C14,11.3 11.3,14 8,14 C4.7,14 2,11.3 2,8 C2,4.7 4.7,2 8,2 C8.6,2 9,1.6 9,1 C9,0.4 8.6,0 8,0 C3.6,0 0,3.6 0,8 C0,12.4 3.6,16 8,16 C12.4,16 16,12.4 16,8 C16,6.3 15.5,4.7 14.5,3.3 Z" id="路径"></path>
                <path d="M3.5,8 C3.5,10.5 5.5,12.5 8,12.5 C10.5,12.5 12.5,10.5 12.5,8 C12.5,5.5 10.5,3.5 8,3.5 C5.5,3.5 3.5,5.5 3.5,8 Z" id="路径"></path>
            </g>
        </g>
    </g>
</svg>